<svg xmlns="http://www.w3.org/2000/svg" viewBox="0 0 24 24"><defs><style>.a{fill:#428cf9;}.b{fill:#f6a35e;}</style></defs><path class="a" d="M4.5,3h7A1.5,1.5,0,0,1,13,4.5h0A1.5,1.5,0,0,1,11.5,6h-7A1.5,1.5,0,0,1,3,4.5H3A1.5,1.5,0,0,1,4.5,3Z"/><path class="b" d="M4,8H20a1.5,1.5,0,0,1,1.5,1.5h0A1.5,1.5,0,0,1,20,11H4A1.5,1.5,0,0,1,2.5,9.5h0A1.5,1.5,0,0,1,4,8Z"/><path class="a" d="M4,13H8a1.5,1.5,0,0,1,1.5,1.5h0A1.5,1.5,0,0,1,8,16H4a1.5,1.5,0,0,1-1.5-1.5h0A1.5,1.5,0,0,1,4,13Z"/><path class="a" d="M12,18h8a1.5,1.5,0,0,1,1.5,1.5h0A1.5,1.5,0,0,1,20,21H12a1.5,1.5,0,0,1-1.5-1.5h0A1.5,1.5,0,0,1,12,18Z"/></svg>