<svg xmlns="http://www.w3.org/2000/svg" id="svg" width="32" height="32">
    <g id="container" transform="translate(16,16)">
        <g id="circles"><circle class="grid-circle" r="17" style="fill-opacity: 0; opacity: 0.7; stroke: transparent;"></circle><circle class="grid-circle" r="15.11111111111111" style="fill-opacity: 0; opacity: 0.7; stroke: transparent;"></circle><circle class="grid-circle" r="13.222222222222221" style="fill-opacity: 0; opacity: 0.7; stroke: transparent;"></circle><circle class="grid-circle" r="11.333333333333332" style="fill-opacity: 0; opacity: 0.7; stroke: transparent;"></circle><circle class="grid-circle" r="9.444444444444445" style="fill-opacity: 0; opacity: 0.7; stroke: transparent;"></circle><circle class="grid-circle" r="7.555555555555555" style="fill-opacity: 0; opacity: 0.7; stroke: transparent;"></circle><circle class="grid-circle" r="5.666666666666666" style="fill-opacity: 0; opacity: 0.7; stroke: transparent;"></circle><circle class="grid-circle" r="3.7777777777777777" style="fill-opacity: 0; opacity: 0.7; stroke: transparent;"></circle><circle class="grid-circle" r="1.8888888888888888" style="fill-opacity: 0; opacity: 0.7; stroke: transparent;"></circle></g>
        <g id="sectors"><path class="sector" fill="#6489FA" stroke="transparent" style="stroke-width: 1; opacity: 1;" transform="translate(0.258819043636322, -0.9659258127212524)" d="M7.114011603847707e-17,-1.1618062626384618A1.1618062626384618,1.1618062626384618,0,0,1,0.5809031313192308,-1.0061537377207634L0,0Z"></path><path class="sector" fill="#FA7864" stroke="transparent" style="stroke-width: 1; opacity: 1;" transform="translate(0.258819043636322, -0.9659258127212524)" d="M1.6542652190769995e-16,-2.7016201246412654A2.7016201246412654,2.7016201246412654,0,0,1,1.3508100623206325,-2.3396716593146176L0.5809031313192308,-1.0061537377207634A1.1618062626384618,1.1618062626384618,0,0,0,7.114011603847707e-17,-1.1618062626384618Z"></path><path class="sector" fill="#FFDE5C" stroke="transparent" style="stroke-width: 1; opacity: 1;" transform="translate(0.258819043636322, -0.9659258127212524)" d="M4.128801363008884e-16,-6.742844330109737A6.742844330109737,6.742844330109737,0,0,1,3.3714221650548675,-5.839474483638898L1.3508100623206325,-2.3396716593146176A2.7016201246412654,2.7016201246412654,0,0,0,1.6542652190769995e-16,-2.7016201246412654Z"></path><path class="sector" fill="#72ECA6" stroke="transparent" style="stroke-width: 1; opacity: 1;" transform="translate(0.7071068286895752, -0.7071068286895752)" d="M1.4948193261575105,-2.5891030210406814A2.9896386523150213,2.9896386523150213,0,0,1,2.5891030210406814,-1.4948193261575107L0,0Z"></path><path class="sector" fill="#ED72DD" stroke="transparent" style="stroke-width: 1; opacity: 1;" transform="translate(0.7071068286895752, -0.7071068286895752)" d="M3.2587469887213985,-5.644315353477547A6.517493977442799,6.517493977442799,0,0,1,5.6443153534775465,-3.2587469887213993L2.5891030210406814,-1.4948193261575107A2.9896386523150213,2.9896386523150213,0,0,0,1.4948193261575105,-2.5891030210406814Z"></path><path class="sector" fill="#FA7864" stroke="transparent" style="stroke-width: 1; opacity: 1;" transform="translate(0.7071068286895752, -0.7071068286895752)" d="M7.999999999999998,-13.85640646055102A16,16,0,0,1,13.856406460551018,-8L5.6443153534775465,-3.2587469887213993A6.517493977442799,6.517493977442799,0,0,0,3.2587469887213985,-5.644315353477547Z"></path><path class="sector" fill="#FAA264" stroke="transparent" style="stroke-width: 1; opacity: 1;" transform="translate(0.9659258127212524, -0.258819043636322)" d="M0.979942248159793,-0.5657699207653436A1.1315398415306872,1.1315398415306872,0,0,1,1.1315398415306872,0L0,0Z"></path><path class="sector" fill="#BC72ED" stroke="transparent" style="stroke-width: 1; opacity: 1;" transform="translate(0.9659258127212524, -0.258819043636322)" d="M2.7379365572683856,-1.5807484083630197A3.1614968167260393,3.1614968167260393,0,0,1,3.1614968167260393,0L1.1315398415306872,0A1.1315398415306872,1.1315398415306872,0,0,0,0.979942248159793,-0.5657699207653436Z"></path><path class="sector" fill="#9EB6FF" stroke="transparent" style="stroke-width: 1; opacity: 1;" transform="translate(0.9659258127212524, -0.258819043636322)" d="M7.093446108907348,-4.095403020459761A8.190806040919522,8.190806040919522,0,0,1,8.190806040919522,0L3.1614968167260393,0A3.1614968167260393,3.1614968167260393,0,0,0,2.7379365572683856,-1.5807484083630197Z"></path><path class="sector" fill="#6489FA" stroke="transparent" style="stroke-width: 1; opacity: 1;" transform="translate(0.9659258127212524, 0.258819043636322)" d="M0.8532789177061477,0A0.8532789177061477,0.8532789177061477,0,0,1,0.7389612192472155,0.4266394588530737L0,0Z"></path><path class="sector" fill="#FA7864" stroke="transparent" style="stroke-width: 1; opacity: 1;" transform="translate(0.9659258127212524, 0.258819043636322)" d="M2.1738365985186423,0A2.1738365985186423,2.1738365985186423,0,0,1,1.882597717993498,1.0869182992593207L0.7389612192472155,0.4266394588530737A0.8532789177061477,0.8532789177061477,0,0,0,0.8532789177061477,0Z"></path><path class="sector" fill="#FFDE5C" stroke="transparent" style="stroke-width: 1; opacity: 1;" transform="translate(0.9659258127212524, 0.258819043636322)" d="M6.3837770537850895,0A6.3837770537850895,6.3837770537850895,0,0,1,5.528513100674067,3.191888526892544L1.882597717993498,1.0869182992593207A2.1738365985186423,2.1738365985186423,0,0,0,2.1738365985186423,0Z"></path><path class="sector" fill="#72ECA6" stroke="transparent" style="stroke-width: 1; opacity: 1;" transform="translate(0.7071068286895752, 0.7071068286895752)" d="M1.9422786289959322,1.1213750892920582A2.2427501785841173,2.2427501785841173,0,0,1,1.1213750892920593,1.9422786289959317L0,0Z"></path><path class="sector" fill="#ED72DD" stroke="transparent" style="stroke-width: 1; opacity: 1;" transform="translate(0.7071068286895752, 0.7071068286895752)" d="M3.905731653522132,2.254975221543444A4.50995044308689,4.50995044308689,0,0,1,2.254975221543446,3.905731653522131L1.1213750892920593,1.9422786289959317A2.2427501785841173,2.2427501785841173,0,0,0,1.9422786289959322,1.1213750892920582Z"></path><path class="sector" fill="#FA7864" stroke="transparent" style="stroke-width: 1; opacity: 1;" transform="translate(0.7071068286895752, 0.7071068286895752)" d="M10.652343811527459,6.15013356708582A12.300267134171644,12.300267134171644,0,0,1,6.150133567085827,10.652343811527457L2.254975221543446,3.905731653522131A4.50995044308689,4.50995044308689,0,0,0,3.905731653522132,2.254975221543444Z"></path><path class="sector" fill="#FAA264" stroke="transparent" style="stroke-width: 1; opacity: 1;" transform="translate(0.258819043636322, 0.9659258127212524)" d="M0.7180375069956823,1.2436774438566138A1.4360750139913636,1.4360750139913636,0,0,1,7.25679651709843e-16,1.4360750139913636L0,0Z"></path><path class="sector" fill="#BC72ED" stroke="transparent" style="stroke-width: 1; opacity: 1;" transform="translate(0.258819043636322, 0.9659258127212524)" d="M1.3166700253603616,2.2805393807271463A2.6333400507207214,2.6333400507207214,0,0,1,1.330683475600172e-15,2.6333400507207214L7.25679651709843e-16,1.4360750139913636A1.4360750139913636,1.4360750139913636,0,0,0,0.7180375069956823,1.2436774438566138Z"></path><path class="sector" fill="#9EB6FF" stroke="transparent" style="stroke-width: 1; opacity: 1;" transform="translate(0.258819043636322, 0.9659258127212524)" d="M3.9320255952574747,6.810468107647199A7.864051190514944,7.864051190514944,0,0,1,3.973874535355979e-15,7.864051190514944L1.330683475600172e-15,2.6333400507207214A2.6333400507207214,2.6333400507207214,0,0,0,1.3166700253603616,2.2805393807271463Z"></path><path class="sector" fill="#6489FA" stroke="transparent" style="stroke-width: 1; opacity: 1;" transform="translate(-0.258819043636322, 0.9659258127212524)" d="M4.544757821202852e-16,0.899379379908651A0.899379379908651,0.899379379908651,0,0,1,-0.449689689954325,0.7788853906407879L0,0Z"></path><path class="sector" fill="#FA7864" stroke="transparent" style="stroke-width: 1; opacity: 1;" transform="translate(-0.258819043636322, 0.9659258127212524)" d="M1.046342394819163e-15,2.070646690642635A2.070646690642635,2.070646690642635,0,0,1,-1.0353233453213164,1.7932326363587006L-0.449689689954325,0.7788853906407879A0.899379379908651,0.899379379908651,0,0,0,4.544757821202852e-16,0.899379379908651Z"></path><path class="sector" fill="#FFDE5C" stroke="transparent" style="stroke-width: 1; opacity: 1;" transform="translate(-0.258819043636322, 0.9659258127212524)" d="M2.7189091709129613e-15,5.380552584684134A5.380552584684134,5.380552584684134,0,0,1,-2.690276292342064,4.6596952247344845L-1.0353233453213164,1.7932326363587006A2.070646690642635,2.070646690642635,0,0,0,1.046342394819163e-15,2.070646690642635Z"></path><path class="sector" fill="#72ECA6" stroke="transparent" style="stroke-width: 1; opacity: 1;" transform="translate(-0.7071068286895752, 0.7071068286895752)" d="M-1.1360548454086117,1.967704712432525A2.272109690817226,2.272109690817226,0,0,1,-1.9677047124325238,1.1360548454086137L0,0Z"></path><path class="sector" fill="#ED72DD" stroke="transparent" style="stroke-width: 1; opacity: 1;" transform="translate(-0.7071068286895752, 0.7071068286895752)" d="M-2.9225759184166207,5.062049979674868A5.845151836833248,5.845151836833248,0,0,1,-5.062049979674866,2.9225759184166256L-1.9677047124325238,1.1360548454086137A2.272109690817226,2.272109690817226,0,0,0,-1.1360548454086117,1.967704712432525Z"></path><path class="sector" fill="#FAA264" stroke="transparent" style="stroke-width: 1; opacity: 1;" transform="translate(-0.9659258127212524, 0.258819043636322)" d="M-1.1125127724019745,0.6423095486231775A1.284619097246354,1.284619097246354,0,0,1,-1.284619097246354,1.57320466556631e-16L0,0Z"></path><path class="sector" fill="#BC72ED" stroke="transparent" style="stroke-width: 1; opacity: 1;" transform="translate(-0.9659258127212524, 0.258819043636322)" d="M-2.1246747318781134,1.226681528390226A2.45336305678045,2.45336305678045,0,0,1,-2.45336305678045,3.004503214632544e-16L-1.284619097246354,1.57320466556631e-16A1.284619097246354,1.284619097246354,0,0,0,-1.1125127724019745,0.6423095486231775Z"></path><path class="sector" fill="#9EB6FF" stroke="transparent" style="stroke-width: 1; opacity: 1;" transform="translate(-0.9659258127212524, 0.258819043636322)" d="M-5.676784637082189,3.2774931383509367A6.554986276701869,6.554986276701869,0,0,1,-6.554986276701869,8.02754296221777e-16L-2.45336305678045,3.004503214632544e-16A2.45336305678045,2.45336305678045,0,0,0,-2.1246747318781134,1.226681528390226Z"></path><path class="sector" fill="#6489FA" stroke="transparent" style="stroke-width: 1; opacity: 1;" transform="translate(-0.9659258127212524, -0.258819043636322)" d="M-0.36639841042175064,4.4870864053567513e-17A0.36639841042175064,0.36639841042175064,0,0,1,-0.31731033133147307,-0.18319920521087535L0,0Z"></path><path class="sector" fill="#FA7864" stroke="transparent" style="stroke-width: 1; opacity: 1;" transform="translate(-0.9659258127212524, -0.258819043636322)" d="M-1.7040008220144525,2.0867991524244579e-16A1.7040008220144525,1.7040008220144525,0,0,1,-1.4757079999340814,-0.8520004110072265L-0.31731033133147307,-0.18319920521087535A0.36639841042175064,0.36639841042175064,0,0,0,-0.36639841042175064,4.4870864053567513e-17Z"></path><path class="sector" fill="#FFDE5C" stroke="transparent" style="stroke-width: 1; opacity: 1;" transform="translate(-0.9659258127212524, -0.258819043636322)" d="M-5.020825200867874,6.148737511321208e-16A5.020825200867874,5.020825200867874,0,0,1,-4.348162171912685,-2.5104126004339373L-1.4757079999340814,-0.8520004110072265A1.7040008220144525,1.7040008220144525,0,0,0,-1.7040008220144525,2.0867991524244579e-16Z"></path><path class="sector" fill="#72ECA6" stroke="transparent" style="stroke-width: 1; opacity: 1;" transform="translate(-0.7071068286895752, -0.7071068286895752)" d="M-1.4329762469519556,-0.8273292219200514A1.6546584438401024,1.6546584438401024,0,0,1,-0.8273292219200505,-1.4329762469519558L0,0Z"></path><path class="sector" fill="#ED72DD" stroke="transparent" style="stroke-width: 1; opacity: 1;" transform="translate(-0.7071068286895752, -0.7071068286895752)" d="M-3.246158170428554,-1.8741702935290292A3.7483405870580575,3.7483405870580575,0,0,1,-1.8741702935290272,-3.2461581704285547L-0.8273292219200505,-1.4329762469519558A1.6546584438401024,1.6546584438401024,0,0,0,-1.4329762469519556,-0.8273292219200514Z"></path><path class="sector" fill="#FA7864" stroke="transparent" style="stroke-width: 1; opacity: 1;" transform="translate(-0.7071068286895752, -0.7071068286895752)" d="M-10.882924573029873,-6.283259431809193A12.566518863618382,12.566518863618382,0,0,1,-6.283259431809187,-10.882924573029877L-1.8741702935290272,-3.2461581704285547A3.7483405870580575,3.7483405870580575,0,0,0,-3.246158170428554,-1.8741702935290292Z"></path><path class="sector" fill="#FAA264" stroke="transparent" style="stroke-width: 1; opacity: 1;" transform="translate(-0.258819043636322, -0.9659258127212524)" d="M-0.4365393470658402,-0.7561083286209797A0.873078694131681,0.873078694131681,0,0,1,6.150677006019083e-16,-0.873078694131681L0,0Z"></path><path class="sector" fill="#BC72ED" stroke="transparent" style="stroke-width: 1; opacity: 1;" transform="translate(-0.258819043636322, -0.9659258127212524)" d="M-1.063707639048789,-1.8423956752316406A2.1274152780975797,2.1274152780975797,0,0,1,1.498724493129704e-15,-2.1274152780975797L6.150677006019083e-16,-0.873078694131681A0.873078694131681,0.873078694131681,0,0,0,-0.4365393470658402,-0.7561083286209797Z"></path><path class="sector" fill="#9EB6FF" stroke="transparent" style="stroke-width: 1; opacity: 1;" transform="translate(-0.258819043636322, -0.9659258127212524)" d="M-3.781617968618536,-6.549954456462719A7.563235937237078,7.563235937237078,0,0,1,5.32815904029438e-15,-7.563235937237078L1.498724493129704e-15,-2.1274152780975797A2.1274152780975797,2.1274152780975797,0,0,0,-1.063707639048789,-1.8423956752316406Z"></path></g>
        <g id="labelPaths" pointer-events="none"><path fill="none" id="label-djpDRU5UUkFMLXY6MS1VUkdFTlQtdjo=" d="M 1.3925975756187709e-15 -22.742844330109737 A 22.742844330109737 22.742844330109737 0 0 1 11.371422165054867 -19.695880944189916"></path><path fill="none" id="label-djpFQVNULXY6MS1VUkdFTlQtdjo=" d="M 15.999999999999996 -27.71281292110204 A 32 32 0 0 1 27.712812921102035 -16"></path><path fill="none" id="label-djpXRVNULXY6MS1VUkdFTlQtdjo=" d="M 20.949852569458365 -12.095403020459761 A 24.190806040919522 24.190806040919522 0 0 1 24.190806040919522 0"></path><path fill="none" id="label-djpDRU5UUkFMLXY6Mi1ISUdILXY6" d="M 19.384919561225086 11.19188852689254 A 22.38377705378509 22.38377705378509 0 0 0 22.38377705378509 0"></path><path fill="none" id="label-djpFQVNULXY6Mi1ISUdILXY6" d="M 14.150133567085831 24.508750272078473 A 28.300267134171644 28.300267134171644 0 0 0 24.50875027207848 14.150133567085817"></path><path fill="none" id="label-djpXRVNULXY6Mi1ISUdILXY6" d="M 1.2059019332274863e-14 23.864051190514942 A 23.864051190514942 23.864051190514942 0 0 0 11.932025595257478 20.666874568198214"></path><path fill="none" id="label-djpDRU5UUkFMLXY6My1NRURJVU0tdjo=" d="M -10.690276292342054 18.516101685285506 A 21.380552584684132 21.380552584684132 0 0 0 1.0804053967831845e-14 21.380552584684132"></path><path fill="none" id="label-djpFQVNULXY6My1NRURJVU0tdjo=" d="M -18.91845644022588 10.92257591841663 A 21.845151836833246 21.845151836833246 0 0 0 -10.92257591841661 18.918456440225892"></path><path fill="none" id="label-djpXRVNULXY6My1NRURJVU0tdjo=" d="M -22.554986276701868 2.762189174857542e-15 A 22.554986276701868 22.554986276701868 0 0 0 -19.533191097633203 11.277493138350941"></path><path fill="none" id="label-djpDRU5UUkFMLXY6NS1MT1ctdjo=" d="M -21.020825200867876 2.574308629767886e-15 A 21.020825200867876 21.020825200867876 0 0 1 -18.204568632463705 -10.51041260043394"></path><path fill="none" id="label-djpFQVNULXY6NS1MT1ctdjo=" d="M -24.739331033580893 -14.283259431809196 A 28.566518863618384 28.566518863618384 0 0 1 -14.283259431809181 -24.7393310335809"></path><path fill="none" id="label-djpXRVNULXY6NS1MT1ctdjo=" d="M -11.78161796861853 -20.40636091701374 A 23.563235937237078 23.563235937237078 0 0 1 1.6599861437542736e-14 -23.563235937237078"></path></g>
        <g id="labels" text-anchor="middle"><text class="label" dy="0.35em" font-size="12" font-style="Normal" font-weight="Normal" fill="#61646B" font-family="&quot;Roboto&quot;,sans-serif" style="opacity: 1;"><textPath href="#label-djpDRU5UUkFMLXY6MS1VUkdFTlQtdjo=" startOffset="50%" class="label-path"></textPath></text><text class="label" dy="0.35em" font-size="12" font-style="Normal" font-weight="Normal" fill="#61646B" font-family="&quot;Roboto&quot;,sans-serif" style="opacity: 1;"><textPath href="#label-djpFQVNULXY6MS1VUkdFTlQtdjo=" startOffset="50%" class="label-path"></textPath></text><text class="label" dy="0.35em" font-size="12" font-style="Normal" font-weight="Normal" fill="#61646B" font-family="&quot;Roboto&quot;,sans-serif" style="opacity: 1;"><textPath href="#label-djpXRVNULXY6MS1VUkdFTlQtdjo=" startOffset="50%" class="label-path"></textPath></text><text class="label" dy="0.35em" font-size="12" font-style="Normal" font-weight="Normal" fill="#61646B" font-family="&quot;Roboto&quot;,sans-serif" style="opacity: 1;"><textPath href="#label-djpDRU5UUkFMLXY6Mi1ISUdILXY6" startOffset="50%" class="label-path"></textPath></text><text class="label" dy="0.35em" font-size="12" font-style="Normal" font-weight="Normal" fill="#61646B" font-family="&quot;Roboto&quot;,sans-serif" style="opacity: 1;"><textPath href="#label-djpFQVNULXY6Mi1ISUdILXY6" startOffset="50%" class="label-path"></textPath></text><text class="label" dy="0.35em" font-size="12" font-style="Normal" font-weight="Normal" fill="#61646B" font-family="&quot;Roboto&quot;,sans-serif" style="opacity: 1;"><textPath href="#label-djpXRVNULXY6Mi1ISUdILXY6" startOffset="50%" class="label-path"></textPath></text><text class="label" dy="0.35em" font-size="12" font-style="Normal" font-weight="Normal" fill="#61646B" font-family="&quot;Roboto&quot;,sans-serif" style="opacity: 1;"><textPath href="#label-djpDRU5UUkFMLXY6My1NRURJVU0tdjo=" startOffset="50%" class="label-path"></textPath></text><text class="label" dy="0.35em" font-size="12" font-style="Normal" font-weight="Normal" fill="#61646B" font-family="&quot;Roboto&quot;,sans-serif" style="opacity: 1;"><textPath href="#label-djpFQVNULXY6My1NRURJVU0tdjo=" startOffset="50%" class="label-path"></textPath></text><text class="label" dy="0.35em" font-size="12" font-style="Normal" font-weight="Normal" fill="#61646B" font-family="&quot;Roboto&quot;,sans-serif" style="opacity: 1;"><textPath href="#label-djpXRVNULXY6My1NRURJVU0tdjo=" startOffset="50%" class="label-path"></textPath></text><text class="label" dy="0.35em" font-size="12" font-style="Normal" font-weight="Normal" fill="#61646B" font-family="&quot;Roboto&quot;,sans-serif" style="opacity: 1;"><textPath href="#label-djpDRU5UUkFMLXY6NS1MT1ctdjo=" startOffset="50%" class="label-path"></textPath></text><text class="label" dy="0.35em" font-size="12" font-style="Normal" font-weight="Normal" fill="#61646B" font-family="&quot;Roboto&quot;,sans-serif" style="opacity: 1;"><textPath href="#label-djpFQVNULXY6NS1MT1ctdjo=" startOffset="50%" class="label-path"></textPath></text><text class="label" dy="0.35em" font-size="12" font-style="Normal" font-weight="Normal" fill="#61646B" font-family="&quot;Roboto&quot;,sans-serif" style="opacity: 1;"><textPath href="#label-djpXRVNULXY6NS1MT1ctdjo=" startOffset="50%" class="label-path"></textPath></text></g>
    </g>
</svg>