<svg xmlns="http://www.w3.org/2000/svg" width="100" height="100"><g transform="translate(50 50)"><circle class="grid-circle" r="50" opacity=".7" stroke="transparent" fill="none"></circle><circle class="grid-circle" r="44.444" opacity=".7" stroke="transparent" fill="none"></circle><circle class="grid-circle" r="38.889" opacity=".7" stroke="transparent" fill="none"></circle><circle class="grid-circle" r="33.333" opacity=".7" stroke="transparent" fill="none"></circle><circle class="grid-circle" r="27.778" opacity=".7" stroke="transparent" fill="none"></circle><circle class="grid-circle" r="22.222" opacity=".7" stroke="transparent" fill="none"></circle><circle class="grid-circle" r="16.667" opacity=".7" stroke="transparent" fill="none"></circle><circle class="grid-circle" r="11.111" opacity=".7" stroke="transparent" fill="none"></circle><circle class="grid-circle" r="5.556" opacity=".7" stroke="transparent" fill="none"></circle></g><path class="sector" fill="#A0A0A0" d="M98.746 61.126a50 50 0 0 1-27.052 33.922L50 50z"></path><path class="sector" fill="#F9B4B9" d="M60.124 71.023a23.333 23.333 0 0 1-20.248 0L50 50z"></path><path class="sector" fill="#72ECA6" d="M60.124 71.023a23.333 23.333 0 0 1-20.248 0 23.333 23.333 0 0 0 20.248 0z"></path><path class="sector" fill="#AFCAD1" d="M34.09 83.036a36.667 36.667 0 0 1-19.837-24.877L50 50z"></path><path class="sector" fill="#F9B4B9" d="M29.151 33.374A26.667 26.667 0 0 1 50 23.334V50z"></path><g pointer-events="none" fill="none" transform="translate(50 50)"><path id="a" d="M0-19a19 19 0 0 1 14.855 7.154"></path><path id="b" d="M0 0"></path><path id="c" d="M29.938 62.167A69 69 0 0 0 67.27 15.354"></path><path id="d" d="M-18.368 38.141a42.333 42.333 0 0 0 36.736 0"></path><path id="e" d="M-54.271 12.387a55.667 55.667 0 0 0 30.118 37.767"></path><path id="f" d="M0 0"></path><path id="g" d="M-35.704-28.473A45.667 45.667 0 0 1 0-45.667"></path></g><g text-anchor="middle"><text class="label" dy=".35em" font-size="15" font-style="Normal" font-weight="Normal" fill="#61646B" font-family="&quot;Roboto&quot;,sans-serif" transform="translate(50 50)"><textPath startOffset="50%" class="label-path"></textPath></text><text class="label" dy=".35em" font-size="15" font-style="Normal" font-weight="Normal" fill="#61646B" font-family="&quot;Roboto&quot;,sans-serif" transform="translate(50 50)"><textPath startOffset="50%" class="label-path"></textPath></text><text class="label" dy=".35em" font-size="15" font-style="Normal" font-weight="Normal" fill="#61646B" font-family="&quot;Roboto&quot;,sans-serif" transform="translate(50 50)"><textPath startOffset="50%" class="label-path"></textPath></text><text class="label" dy=".35em" font-size="15" font-style="Normal" font-weight="Normal" fill="#61646B" font-family="&quot;Roboto&quot;,sans-serif" transform="translate(50 50)"><textPath startOffset="50%" class="label-path"></textPath></text><text class="label" dy=".35em" font-size="15" font-style="Normal" font-weight="Normal" fill="#61646B" font-family="&quot;Roboto&quot;,sans-serif" transform="translate(50 50)"><textPath startOffset="50%" class="label-path"></textPath></text><text class="label" dy=".35em" font-size="15" font-style="Normal" font-weight="Normal" fill="#61646B" font-family="&quot;Roboto&quot;,sans-serif" transform="translate(50 50)"><textPath startOffset="50%" class="label-path"></textPath></text><text class="label" dy=".35em" font-size="15" font-style="Normal" font-weight="Normal" fill="#61646B" font-family="&quot;Roboto&quot;,sans-serif" transform="translate(50 50)"><textPath startOffset="50%" class="label-path"></textPath></text></g></svg>