<svg xmlns="http://www.w3.org/2000/svg" viewBox="0 0 460 52"><path d="M206.458,35.7a18.344,18.344,0,0,1-13.785,6.209c-9.757,0-17.191-8.226-17.191-18.161v-.155c0-9.934,7.279-18.161,17.037-18.161,6.5,0,10.377,2.639,13.629,5.743l1.394-1.4c-3.717-3.57-7.744-6.209-14.869-6.209-11,0-19.05,9.158-19.05,20.179s8.054,19.869,19.05,19.869a20.223,20.223,0,0,0,15.179-6.675Z" style="fill:#fff"/><path d="M224.579,14.436c-8.518,0-14.4,6.83-14.4,14.746a14.4,14.4,0,1,0,28.808-.155v-.155A14.2,14.2,0,0,0,224.579,14.436Zm.155,27.63a12.577,12.577,0,0,1-12.545-12.884v-.155c0-6.985,5.111-12.884,12.39-12.884,7.125,0,12.546,5.9,12.546,13.039C237.125,36.167,232.013,42.066,224.734,42.066Z" style="fill:#fff"/><path d="M275.845,14.591c-4.956,0-8.518,3.725-9.912,7.3a9.581,9.581,0,0,0-9.758-7.3,10.265,10.265,0,0,0-9.448,6.83V15.212h-1.7V43h1.7V26.854c0-6.054,4.492-10.711,9.293-10.711,5.266,0,8.829,3.726,8.829,10.4V43h1.7V26.7c0-6.208,4.492-10.555,9.293-10.555,5.266,0,8.828,3.726,8.828,10.4V43.152h1.7V26.543C286.377,18.937,282.2,14.591,275.845,14.591Z" style="fill:#fff"/><path d="M325.1,14.591c-4.957,0-8.519,3.725-9.913,7.3a9.581,9.581,0,0,0-9.757-7.3,10.264,10.264,0,0,0-9.448,6.83V15.212h-1.7V43h1.7V26.854c0-6.054,4.491-10.711,9.293-10.711,5.266,0,8.828,3.726,8.828,10.4V43h1.7V26.7c0-6.208,4.491-10.555,9.293-10.555,5.266,0,8.828,3.726,8.828,10.4V43.152h1.7V26.543C335.63,18.937,331.448,14.591,325.1,14.591Z" style="fill:#fff"/><path d="M365.212,15.212V30.89c0,6.364-4.646,11.176-10.532,11.176-6.5,0-9.912-4.347-9.912-10.866V15.212h-1.7v16.3c0,7.141,4.182,12.108,11.461,12.108a11.386,11.386,0,0,0,10.687-7.3V43h1.7V15.212Z" style="fill:#fff"/><path d="M387.36,14.591a11.387,11.387,0,0,0-10.687,7.3V15.212h-1.7V43h1.7V27.319c0-6.364,4.647-11.176,10.532-11.176,6.5,0,9.913,4.347,9.913,10.866V43.152h1.7v-16.3C398.822,19.558,394.64,14.591,387.36,14.591Z" style="fill:#fff"/><path d="M406.721,43h1.858V15.212h-1.858Zm-.155-38.961V7.451h2.323V4.036Z" style="fill:#fff"/><path d="M430.263,16.764V15.212H420.2V5.9h-1.7v9.314H414.31v1.552h4.182V35.857c0,4.967,2.942,7.606,7.279,7.761a10.388,10.388,0,0,0,4.337-.931V40.979a10.2,10.2,0,0,1-4.182.931c-3.562,0-5.731-2.173-5.731-6.209V16.764Z" style="fill:#fff"/><path d="M458.141,15.212,446.99,40.979,434.754,15.057h-2.013l13.32,27.785c-2.633,5.9-4.492,7.451-7.59,7.451a9.448,9.448,0,0,1-4.646-1.242l-.774,1.552a12.186,12.186,0,0,0,5.42,1.4c3.718,0,6.041-1.552,8.984-8.227L460,15.212Z" style="fill:#fff"/><polygon points="0 4.346 0 9.313 13.475 9.313 13.475 42.997 18.741 42.997 18.741 9.313 32.216 9.313 32.216 4.346 0 4.346" style="fill:#fff"/><rect x="38.411" y="4.346" width="5.266" height="38.651" style="fill:#fff"/><path d="M72.33,23.128c4.337-1.707,6.66-4.5,6.66-8.537,0-6.054-4.182-10.245-13.475-10.245H52.66V43.152H65.825c10.067,0,14.4-4.5,14.4-11.021C80.229,27.785,77.441,24.37,72.33,23.128ZM58.081,9.158h7.9c5.111,0,7.744,2.173,7.744,5.9s-2.943,6.209-8.519,6.209H58.081ZM66.29,38.185H57.926V26.078h7.589c5.576,0,9.448,1.552,9.293,6.053C74.808,36.167,72.02,38.185,66.29,38.185Z" style="fill:#fff"/><path d="M103.926,39.116c-8.364,0-14.094-6.053-14.094-15.677s5.73-15.367,14.094-15.367a18.359,18.359,0,0,1,10.532,3.259l1.7-4.656a23.946,23.946,0,0,0-12.236-3.26c-11.306,0-19.36,8.072-19.36,20.334s8.054,20.179,19.36,20.179a22.8,22.8,0,0,0,11.926-3.259l-.929-5.278A19.46,19.46,0,0,1,103.926,39.116Z" style="fill:#fff"/><path d="M146.054,5.278c-5.111,9.623-14.249,21.265-26.33,27.785a19.181,19.181,0,0,0,2.633,4.191c10.532-7.141,20.135-19.248,25.555-31.045Z" style="fill:#fff"/><path d="M137.38,3.26c-11.306,0-19.36,8.847-19.36,20.334a20.118,20.118,0,0,0,.62,5.433c11.461-4.657,21.838-15.057,27.1-24.06A20.645,20.645,0,0,0,137.38,3.26Z" style="fill:#fff"/><path d="M148.377,6.364c-5.885,14.746-13.165,24.991-22.458,33.994a19.649,19.649,0,0,0,11.461,3.415c11.307,0,19.361-8.848,19.361-20.334C156.741,15.678,153.488,9.779,148.377,6.364Z" style="fill:#fff"/><path d="M161.7,0a5.03,5.03,0,0,0-4.956,5.122A4.68,4.68,0,0,0,161.7,9.934a4.9,4.9,0,0,0,4.956-4.967A5,5,0,0,0,161.7,0Zm0,9.624a4.371,4.371,0,0,1-4.337-4.5,4.34,4.34,0,1,1,8.674,0A4.371,4.371,0,0,1,161.7,9.624Zm2.323-5.588c0-.932-.929-1.552-2.013-1.552h-2.324V7.451h.93V5.743H161.7l1.239,1.708h1.239l-1.394-1.863A1.51,1.51,0,0,0,164.02,4.036Zm-2.168.931-1.239.155V3.415h1.239c.774,0,1.084.155,1.084.776C162.936,4.657,162.471,4.967,161.852,4.967Z" style="fill:#fff"/></svg>