<svg xmlns="http://www.w3.org/2000/svg" viewBox="0 0 24 24"><defs><style>.a{fill:#6186fe;fill-opacity:0.4;}.b{fill:#f37961;}</style></defs><path class="a" d="M19.72,6.656A10,10,0,1,0,4.28,19.377,9.888,9.888,0,0,0,5.96,21l1.43-1.432A8.015,8.015,0,0,1,11.99,5a8.014,8.014,0,0,1,5.09,14.2,5.037,5.037,0,0,1-.48.351l1.43,1.432a2.428,2.428,0,0,0,.32-.24A10.017,10.017,0,0,0,19.72,6.656Z"/><path class="b" d="M11.99,3A10.015,10.015,0,0,0,4.28,19.38,9.869,9.869,0,0,0,5.96,21l1.43-1.43A8.01,8.01,0,1,1,17.12,6.86l1.41-1.42A9.874,9.874,0,0,0,11.99,3Z"/><path class="b" d="M12.633,15.357a2.276,2.276,0,0,1-.413-.767A5.516,5.516,0,0,1,12,13.007a4.808,4.808,0,0,1,.356-1.915A1.786,1.786,0,0,1,14,10a1.741,1.741,0,0,1,1.37.643,2.256,2.256,0,0,1,.412.767A5.53,5.53,0,0,1,16,13a4.828,4.828,0,0,1-.356,1.922A1.79,1.79,0,0,1,14,16,1.7,1.7,0,0,1,12.633,15.357Zm.524-2.4c0,1.237.287,1.873.846,1.873s.835-.622.835-1.853c0-1.181-.294-1.8-.84-1.8C13.468,11.168,13.157,11.825,13.157,12.952Z"/><path class="b" d="M12,11.209a5.687,5.687,0,0,0-.829,1.437A10.068,10.068,0,0,0,10.318,16H8.92a11.447,11.447,0,0,1,.726-2.782,11.566,11.566,0,0,1,.993-1.917H8.914A6.1,6.1,0,0,0,8,11.352V10a7.094,7.094,0,0,0,.98.05h2.046A9.6,9.6,0,0,0,12,10.021Z"/></svg>