<svg xmlns="http://www.w3.org/2000/svg" width="24" height="24" viewBox="0 0 24 24"><g transform="translate(-133 -498)"><rect width="24" height="24" transform="translate(133 498)" fill="red" opacity="0"/><rect width="20" height="20" transform="translate(135 500)" fill="red" opacity="0"/></g><g transform="translate(0 0.5)"><g transform="translate(2 1.5)"><path d="M5.081,10.178,2.648,9.294a.485.485,0,0,0-.62.306.5.5,0,0,0,.3.638l2.739.994A1.993,1.993,0,0,1,5.081,10.178Z" transform="translate(-2 -1.908)" fill="#6186fe"/><path d="M14.783,11.667l-2.309.834V9.116l-.369-.36-.6.557v3.195l-2.174-.789.31,1.173,1.584.575-1.03,1.525.144.544.636.055,1.014-1.5L13.1,15.776l.868.075.081-.418-1.3-1.971,1.814-.655Z" transform="translate(-2 -2.022)" fill="#6186fe"/><path d="M12.474,4.032V2A.487.487,0,1,0,11.5,2V4.111A2,2,0,0,1,12.474,4.032Z" transform="translate(-2 -1.5)" fill="#6186fe"/><path d="M7.511,18.961,5.652,21.715a.508.508,0,0,0,.122.7.475.475,0,0,0,.277.089.483.483,0,0,0,.4-.215L8.426,19.36A1.981,1.981,0,0,1,7.511,18.961Z" transform="translate(-2 -2.5)" fill="#6186fe"/><path d="M21.972,9.6a.481.481,0,0,0-.62-.307l-2.438.881a2,2,0,0,1,.049.948l-.02.1,2.732-.986A.5.5,0,0,0,21.972,9.6Z" transform="translate(-2 -1.908)" fill="#6186fe"/><path d="M16.8,19.587a2,2,0,0,1-.919.388L17.4,22.28a.48.48,0,0,0,.4.219.474.474,0,0,0,.274-.087.508.508,0,0,0,.128-.694Z" transform="translate(-2 -2.5)" fill="#6186fe"/></g><path d="M17,10.346,12.145,6,7,10.346l1.76,6.111L15.588,17Z" transform="translate(0 0.5)" fill="none" stroke="#f6a35e" stroke-width="2"/></g></svg>