<?xml version="1.0" encoding="utf-8"?>
<!-- Generator: Adobe Illustrator 18.1.1, SVG Export Plug-In . SVG Version: 6.00 Build 0)  -->
<svg version="1.1" id="Layer_1" xmlns="http://www.w3.org/2000/svg" xmlns:xlink="http://www.w3.org/1999/xlink" x="0px" y="0px"
	 viewBox="135 -0.5 300 33.5" enable-background="new 135 -0.5 300 33.5" xml:space="preserve">
<g>
	<g>
		<path fill="#A4A9AD" d="M248.1,14.8L248.1,14.8c0-7.1,5.2-13,12.3-13c4.6,0,7.2,1.7,9.6,4l-0.9,0.9c-2.1-2-4.6-3.7-8.8-3.7
			c-6.3,0-11,5.3-11,11.7v0.1c0,6.4,4.8,11.7,11.1,11.7c3.9,0,6.7-1.7,8.9-4l0.9,0.8c-2.3,2.4-5.4,4.3-9.8,4.3
			C253.3,27.6,248.1,21.9,248.1,14.8z"/>
		<path fill="#A4A9AD" d="M271.7,18.3L271.7,18.3c0-5.1,3.8-9.5,9.3-9.5s9.3,4.3,9.3,9.3v0.1c0,5-3.8,9.4-9.3,9.4
			C275.5,27.6,271.7,23.3,271.7,18.3z M289.1,18.3L289.1,18.3c0-4.6-3.5-8.4-8.1-8.4c-4.7,0-8,3.8-8,8.3v0.1c0,4.5,3.4,8.3,8.1,8.3
			C285.8,26.6,289.1,22.8,289.1,18.3z"/>
		<path fill="#A4A9AD" d="M294.2,9.3h1.1v4c0.8-2.1,2.9-4.4,6.1-4.4c3.6,0,5.6,2.2,6.3,4.7c0.9-2.3,3.2-4.7,6.4-4.7
			c4.1,0,6.8,2.8,6.8,7.7v10.7h-1.1V16.6c0-4.3-2.3-6.7-5.7-6.7c-3.1,0-6,2.8-6,6.8v10.5H307V16.6c0-4.3-2.3-6.7-5.7-6.7
			c-3.1,0-6,3-6,6.9v10.4h-1.1V9.3z"/>
		<path fill="#A4A9AD" d="M326,9.3h1.1v4c0.8-2.1,2.9-4.4,6.1-4.4c3.6,0,5.6,2.2,6.3,4.7c0.9-2.3,3.2-4.7,6.4-4.7
			c4.1,0,6.8,2.8,6.8,7.7v10.7h-1.1V16.6c0-4.3-2.3-6.7-5.7-6.7c-3.1,0-6,2.8-6,6.8v10.5h-1.1V16.6c0-4.3-2.3-6.7-5.7-6.7
			c-3.1,0-6,3-6,6.9v10.4H326V9.3z"/>
		<path fill="#A4A9AD" d="M357.5,19.8V9.3h1.1v10.3c0,4.2,2.2,7,6.4,7c3.8,0,6.8-3.1,6.8-7.2V9.3h1.1v17.9h-1.1v-4.3
			c-0.8,2.1-3.1,4.7-6.9,4.7C360.2,27.6,357.5,24.4,357.5,19.8z"/>
		<path fill="#A4A9AD" d="M378.1,9.3h1.1v4.3c0.8-2.1,3.1-4.7,6.9-4.7c4.7,0,7.4,3.2,7.4,7.9v10.5h-1.1V16.9c0-4.2-2.2-7-6.4-7
			c-3.8,0-6.8,3.1-6.8,7.2v10.1h-1.1L378.1,9.3L378.1,9.3z"/>
		<path fill="#A4A9AD" d="M398.5,2.1h1.5v2.2h-1.5V2.1z M398.6,9.3h1.2v17.9h-1.2V9.3z"/>
		<path fill="#A4A9AD" d="M406.2,22.6V10.3h-2.7v-1h2.7v-6h1.1v6h6.5v1h-6.5v12.2c0,2.6,1.4,4,3.7,4c0.9,0,1.8-0.2,2.7-0.6V27
			c-0.9,0.4-1.8,0.6-2.8,0.6C408.1,27.5,406.2,25.8,406.2,22.6z"/>
		<path fill="#A4A9AD" d="M431.8,9.3h1.2l-8.1,18.4c-1.9,4.3-3.4,5.3-5.8,5.3c-1.3,0-2.5-0.4-3.5-0.9l0.5-1c0.9,0.5,1.9,0.8,3,0.8
			c2,0,3.2-1,4.9-4.8l-8.6-17.9h1.3l7.9,16.7L431.8,9.3z"/>
	</g>
	<g>
		<g>
			<g>
				<g>
					<g>
						<g>
							<g>
								<path fill="#3E8EDE" d="M148.1,5.5v21.7h-3.4V5.5H136V2.3h20.8v3.2H148.1z"/>
								<path fill="#3E8EDE" d="M160.8,27.2V2.3h3.4v24.9H160.8z"/>
								<path fill="#3E8EDE" d="M187.8,20.2c0,4.2-2.8,7.1-9.3,7.1H170v-25h8.3c6,0,8.7,2.7,8.7,6.6c0,2.6-1.5,4.4-4.3,5.5
									C186,15.2,187.8,17.4,187.8,20.2z M178.6,5.4h-5.1v7.8h4.6c3.6,0,5.5-1.6,5.5-4S181.9,5.4,178.6,5.4z M178.3,16.3h-4.9v7.8
									h5.4c3.7,0,5.5-1.3,5.5-3.9C184.4,17.3,181.9,16.3,178.3,16.3z"/>
								<path fill="#3E8EDE" d="M209.9,6.8c-2.2-1.4-4.2-2.1-6.8-2.1c-5.4,0-9.1,3.7-9.1,9.9c0,6.2,3.7,10.1,9.1,10.1
									c2.7,0,5.3-1.1,7.1-2.4l0.6,3.4c-2,1.3-4.9,2.1-7.7,2.1c-7.3,0-12.5-5.1-12.5-13s5.2-13.1,12.5-13.1c2.8,0,5.9,0.8,7.9,2.1
									L209.9,6.8z"/>
							</g>
							<g>
								<path fill="#3E8EDE" d="M231.5,3.5c-0.4-0.2-0.8-0.4-1.2-0.6c-3.3,6.2-9.2,13.7-17,17.9c0.5,1,1,1.9,1.7,2.7
									C221.8,18.9,228,11.1,231.5,3.5z"/>
								<path fill="#3E8EDE" d="M230.1,2.7c-1.6-0.7-3.4-1.1-5.4-1.1c-7.3,0-12.5,5.7-12.5,13.1c0,1.3,0.1,2.4,0.4,3.5
									C220,15.2,226.7,8.5,230.1,2.7z"/>
								<path fill="#3E8EDE" d="M231.8,3.6c-3.8,9.5-8.5,16.1-14.5,21.9c2,1.4,4.5,2.2,7.4,2.2c7.3,0,12.5-5.7,12.5-13.1
									C237.2,9.6,235.1,5.8,231.8,3.6z"/>
							</g>
							<g>
								<path fill="#3E8EDE" d="M237.2,2.8L237.2,2.8c0-1.8,1.4-3.3,3.2-3.3c1.8,0,3.2,1.5,3.2,3.2l0,0c0,1.8-1.4,3.2-3.2,3.2
									C238.6,6,237.2,4.6,237.2,2.8z M243.2,2.8L243.2,2.8c0-1.6-1.2-2.9-2.8-2.9s-2.8,1.3-2.8,2.9l0,0c0,1.6,1.2,2.9,2.8,2.9
									S243.2,4.4,243.2,2.8z M239.1,1.1h1.5c0.7,0,1.3,0.4,1.3,1c0,0.5-0.3,0.9-0.8,1l0.9,1.2h-0.8l-0.8-1.1h-0.7v1.1h-0.6V1.1z
									 M240.5,2.7c0.4,0,0.7-0.2,0.7-0.5c0-0.4-0.2-0.5-0.7-0.5h-0.8v1.1L240.5,2.7L240.5,2.7z"/>
							</g>
						</g>
					</g>
				</g>
			</g>
		</g>
	</g>
</g>
</svg>
