<?xml version="1.0" encoding="UTF-8"?>
<!DOCTYPE svg PUBLIC "-//W3C//DTD SVG 1.1//EN" "http://www.w3.org/Graphics/SVG/1.1/DTD/svg11.dtd">
<svg xmlns="http://www.w3.org/2000/svg" version="1.1" width="476px" height="460px" style="shape-rendering:geometricPrecision; text-rendering:geometricPrecision; image-rendering:optimizeQuality; fill-rule:evenodd; clip-rule:evenodd" xmlns:xlink="http://www.w3.org/1999/xlink">
<g><path style="opacity:1" fill="#fdfdfd" d="M -0.5,-0.5 C 158.167,-0.5 316.833,-0.5 475.5,-0.5C 475.5,152.833 475.5,306.167 475.5,459.5C 316.833,459.5 158.167,459.5 -0.5,459.5C -0.5,306.167 -0.5,152.833 -0.5,-0.5 Z"/></g>
<g><path style="opacity:1" fill="#050505" d="M 21.5,12.5 C 18.5,12.5 15.5,12.5 12.5,12.5C 12.5,21.8333 12.5,31.1667 12.5,40.5C 15.5,40.5 18.5,40.5 21.5,40.5C 25.5,43.1667 25.5,45.8333 21.5,48.5C 18.5,48.5 15.5,48.5 12.5,48.5C 12.1731,58.015 12.5064,67.3483 13.5,76.5C 16.5184,76.3354 19.5184,76.502 22.5,77C 25.1667,79.3333 25.1667,81.6667 22.5,84C 19.5184,84.498 16.5184,84.6646 13.5,84.5C 13.5,93.8333 13.5,103.167 13.5,112.5C 16.5184,112.335 19.5184,112.502 22.5,113C 25.2652,115.966 24.9318,118.633 21.5,121C 18.854,121.497 16.1873,121.664 13.5,121.5C 13.5,130.5 13.5,139.5 13.5,148.5C 16.5184,148.335 19.5184,148.502 22.5,149C 25.2652,151.966 24.9318,154.633 21.5,157C 18.854,157.497 16.1873,157.664 13.5,157.5C 13.5,166.5 13.5,175.5 13.5,184.5C 16.5184,184.335 19.5184,184.502 22.5,185C 25.2652,187.966 24.9318,190.633 21.5,193C 18.854,193.497 16.1873,193.664 13.5,193.5C 12.5104,199.31 12.1771,205.31 12.5,211.5C 17.0323,211.818 21.3656,211.485 25.5,210.5C 25.3359,207.813 25.5026,205.146 26,202.5C 28.6667,198.5 31.3333,198.5 34,202.5C 34.498,205.482 34.6646,208.482 34.5,211.5C 43.5,211.5 52.5,211.5 61.5,211.5C 61.3354,208.482 61.502,205.482 62,202.5C 64.7159,198.524 67.3826,198.524 70,202.5C 70.498,205.482 70.6646,208.482 70.5,211.5C 79.5,211.5 88.5,211.5 97.5,211.5C 97.3354,208.482 97.502,205.482 98,202.5C 100.158,199.05 102.658,198.717 105.5,201.5C 106.484,204.428 106.817,207.428 106.5,210.5C 115.652,211.494 124.985,211.827 134.5,211.5C 134.5,208.5 134.5,205.5 134.5,202.5C 136.347,198.999 138.68,198.665 141.5,201.5C 142.407,204.421 142.74,207.421 142.5,210.5C 151.652,211.494 160.985,211.827 170.5,211.5C 170.5,208.5 170.5,205.5 170.5,202.5C 172.177,199.223 174.51,198.723 177.5,201C 178.451,204.057 178.784,207.223 178.5,210.5C 182.634,211.485 186.968,211.818 191.5,211.5C 191.5,208.833 191.5,206.167 191.5,203.5C 193.563,200.027 196.063,199.694 199,202.5C 199.806,208.084 199.639,213.584 198.5,219C 134.5,219.667 70.5,219.667 6.5,219C 6,218.5 5.5,218 5,217.5C 4.33333,147.167 4.33333,76.8333 5,6.5C 5.5,6 6,5.5 6.5,5C 11.8333,4.33333 17.1667,4.33333 22.5,5C 25.3062,7.93718 24.9729,10.4372 21.5,12.5 Z"/></g>
<g><path style="opacity:1" fill="#050505" d="M 270.5,12.5 C 267.5,12.5 264.5,12.5 261.5,12.5C 261.5,21.8333 261.5,31.1667 261.5,40.5C 264.5,40.5 267.5,40.5 270.5,40.5C 274.5,43.1667 274.5,45.8333 270.5,48.5C 267.5,48.5 264.5,48.5 261.5,48.5C 261.173,58.015 261.506,67.3483 262.5,76.5C 265.518,76.3354 268.518,76.502 271.5,77C 274.167,79.3333 274.167,81.6667 271.5,84C 268.518,84.498 265.518,84.6646 262.5,84.5C 262.5,93.8333 262.5,103.167 262.5,112.5C 265.518,112.335 268.518,112.502 271.5,113C 274.265,115.966 273.932,118.633 270.5,121C 267.854,121.497 265.187,121.664 262.5,121.5C 262.5,130.5 262.5,139.5 262.5,148.5C 265.518,148.335 268.518,148.502 271.5,149C 274.265,151.966 273.932,154.633 270.5,157C 267.854,157.497 265.187,157.664 262.5,157.5C 262.5,166.5 262.5,175.5 262.5,184.5C 265.518,184.335 268.518,184.502 271.5,185C 274.265,187.966 273.932,190.633 270.5,193C 267.854,193.497 265.187,193.664 262.5,193.5C 261.51,199.31 261.177,205.31 261.5,211.5C 266.032,211.818 270.366,211.485 274.5,210.5C 274.336,207.813 274.503,205.146 275,202.5C 277.667,198.5 280.333,198.5 283,202.5C 283.498,205.482 283.665,208.482 283.5,211.5C 292.5,211.5 301.5,211.5 310.5,211.5C 310.335,208.482 310.502,205.482 311,202.5C 313.716,198.524 316.383,198.524 319,202.5C 319.498,205.482 319.665,208.482 319.5,211.5C 328.5,211.5 337.5,211.5 346.5,211.5C 346.335,208.482 346.502,205.482 347,202.5C 349.158,199.05 351.658,198.717 354.5,201.5C 355.484,204.428 355.817,207.428 355.5,210.5C 364.652,211.494 373.985,211.827 383.5,211.5C 383.5,208.5 383.5,205.5 383.5,202.5C 385.347,198.999 387.68,198.665 390.5,201.5C 391.407,204.421 391.74,207.421 391.5,210.5C 400.652,211.494 409.985,211.827 419.5,211.5C 419.5,208.5 419.5,205.5 419.5,202.5C 421.177,199.223 423.51,198.723 426.5,201C 427.451,204.057 427.784,207.223 427.5,210.5C 431.634,211.485 435.968,211.818 440.5,211.5C 440.5,208.833 440.5,206.167 440.5,203.5C 442.563,200.027 445.063,199.694 448,202.5C 448.806,208.084 448.639,213.584 447.5,219C 383.5,219.667 319.5,219.667 255.5,219C 255,218.5 254.5,218 254,217.5C 253.333,147.167 253.333,76.8333 254,6.5C 254.5,6 255,5.5 255.5,5C 260.833,4.33333 266.167,4.33333 271.5,5C 274.306,7.93718 273.973,10.4372 270.5,12.5 Z"/></g>
<g><path style="opacity:1" fill="#686868" d="M 21.5,12.5 C 19.0521,13.4731 16.3854,13.8064 13.5,13.5C 13.5,22.1667 13.5,30.8333 13.5,39.5C 16.3854,39.1936 19.0521,39.5269 21.5,40.5C 18.5,40.5 15.5,40.5 12.5,40.5C 12.5,31.1667 12.5,21.8333 12.5,12.5C 15.5,12.5 18.5,12.5 21.5,12.5 Z"/></g>
<g><path style="opacity:1" fill="#686868" d="M 270.5,12.5 C 268.052,13.4731 265.385,13.8064 262.5,13.5C 262.5,22.1667 262.5,30.8333 262.5,39.5C 265.385,39.1936 268.052,39.5269 270.5,40.5C 267.5,40.5 264.5,40.5 261.5,40.5C 261.5,31.1667 261.5,21.8333 261.5,12.5C 264.5,12.5 267.5,12.5 270.5,12.5 Z"/></g>
<g><path style="opacity:1" fill="#0a0a0a" d="M 333.5,36.5 C 346.379,37.1998 350.545,43.5331 346,55.5C 337.66,61.8801 330.994,60.5467 326,51.5C 324.808,44.5509 327.308,39.5509 333.5,36.5 Z"/></g>
<g><path style="opacity:1" fill="#090909" d="M 166.5,38.5 C 173.663,37.3311 178.829,39.9978 182,46.5C 182.626,57.5413 177.459,62.3747 166.5,61C 160.643,57.8128 158.477,52.9795 160,46.5C 161.305,43.0386 163.471,40.372 166.5,38.5 Z"/></g>
<g><path style="opacity:1" fill="#070707" d="M 204.5,39.5 C 217.717,39.9417 221.884,46.275 217,58.5C 208.8,64.7576 202.133,63.4243 197,54.5C 195.802,47.5698 198.302,42.5698 204.5,39.5 Z"/></g>
<g><path style="opacity:1" fill="#070707" d="M 453.5,39.5 C 466.717,39.9417 470.884,46.275 466,58.5C 457.8,64.7576 451.133,63.4243 446,54.5C 444.802,47.5698 447.302,42.5698 453.5,39.5 Z"/></g>
<g><path style="opacity:1" fill="#5c5c5c" d="M 21.5,48.5 C 19.0521,49.4731 16.3854,49.8064 13.5,49.5C 13.5,58.5 13.5,67.5 13.5,76.5C 12.5064,67.3483 12.1731,58.015 12.5,48.5C 15.5,48.5 18.5,48.5 21.5,48.5 Z"/></g>
<g><path style="opacity:1" fill="#5c5c5c" d="M 270.5,48.5 C 268.052,49.4731 265.385,49.8064 262.5,49.5C 262.5,58.5 262.5,67.5 262.5,76.5C 261.506,67.3483 261.173,58.015 261.5,48.5C 264.5,48.5 267.5,48.5 270.5,48.5 Z"/></g>
<g><path style="opacity:1" fill="#050505" d="M 114.5,76.5 C 125.886,76.0482 130.72,81.3815 129,92.5C 125.867,98.3265 121.034,100.493 114.5,99C 108.092,95.6772 105.925,90.5105 108,83.5C 109.694,80.6424 111.861,78.309 114.5,76.5 Z"/></g>
<g><path style="opacity:1" fill="#0a0a0a" d="M 195.5,75.5 C 208.379,76.1998 212.545,82.5331 208,94.5C 199.66,100.88 192.994,99.5467 188,90.5C 186.808,83.5509 189.308,78.5509 195.5,75.5 Z"/></g>
<g><path style="opacity:1" fill="#080808" d="M 152.5,77.5 C 163.992,77.8105 168.492,83.4772 166,94.5C 160.305,101.587 153.972,102.254 147,96.5C 142.487,88.2202 144.32,81.8869 152.5,77.5 Z"/></g>
<g><path style="opacity:1" fill="#050505" d="M 294.5,79.5 C 305.886,79.0482 310.72,84.3815 309,95.5C 305.867,101.327 301.034,103.493 294.5,102C 288.092,98.6772 285.925,93.5105 288,86.5C 289.694,83.6424 291.861,81.309 294.5,79.5 Z"/></g>
<g><path style="opacity:1" fill="#080808" d="M 337.5,78.5 C 348.992,78.8105 353.492,84.4772 351,95.5C 345.305,102.587 338.972,103.254 332,97.5C 327.487,89.2202 329.32,82.8869 337.5,78.5 Z"/></g>
<g><path style="opacity:1" fill="#090909" d="M 411.5,106.5 C 418.663,105.331 423.829,107.998 427,114.5C 427.626,125.541 422.459,130.375 411.5,129C 405.643,125.813 403.477,120.979 405,114.5C 406.305,111.039 408.471,108.372 411.5,106.5 Z"/></g>
<g><path style="opacity:1" fill="#080808" d="M 62.5,114.5 C 73.3704,113.868 78.2037,118.868 77,129.5C 74.1933,135.777 69.36,138.277 62.5,137C 51.8805,129.502 51.8805,122.002 62.5,114.5 Z"/></g>
<g><path style="opacity:1" fill="#090909" d="M 142.5,113.5 C 152.695,112.869 157.861,117.536 158,127.5C 155.315,134.841 150.148,137.674 142.5,136C 136.092,132.677 133.925,127.511 136,120.5C 137.694,117.642 139.861,115.309 142.5,113.5 Z"/></g>
<g><path style="opacity:1" fill="#080808" d="M 311.5,114.5 C 322.37,113.868 327.204,118.868 326,129.5C 323.193,135.777 318.36,138.277 311.5,137C 300.88,129.502 300.88,122.002 311.5,114.5 Z"/></g>
<g><path style="opacity:1" fill="#070707" d="M 99.5,115.5 C 110.865,115.028 115.699,120.362 114,131.5C 110.813,137.357 105.979,139.523 99.5,138C 93.0919,134.677 90.9252,129.511 93,122.5C 94.6941,119.642 96.8607,117.309 99.5,115.5 Z"/></g>
<g><path style="opacity:1" fill="#070707" d="M 348.5,115.5 C 359.865,115.028 364.699,120.362 363,131.5C 359.813,137.357 354.979,139.523 348.5,138C 342.092,134.677 339.925,129.511 342,122.5C 343.694,119.642 345.861,117.309 348.5,115.5 Z"/></g>
<g><path style="opacity:1" fill="#090909" d="M 382.5,147.5 C 392.695,146.869 397.861,151.536 398,161.5C 395.315,168.841 390.148,171.674 382.5,170C 376.092,166.677 373.925,161.511 376,154.5C 377.694,151.642 379.861,149.309 382.5,147.5 Z"/></g>
<g><path style="opacity:1" fill="#070707" d="M 90.5,151.5 C 103.259,151.416 107.759,157.416 104,169.5C 95.3217,176.998 88.3217,175.665 83,165.5C 82.5811,159.341 85.0811,154.674 90.5,151.5 Z"/></g>
<g><path style="opacity:1" fill="#070707" d="M 339.5,151.5 C 352.259,151.416 356.759,157.416 353,169.5C 344.322,176.998 337.322,175.665 332,165.5C 331.581,159.341 334.081,154.674 339.5,151.5 Z"/></g>
<g><path style="opacity:1" fill="#070707" d="M 47.5,153.5 C 58.3704,152.868 63.2037,157.868 62,168.5C 58.5405,175.812 53.0405,177.979 45.5,175C 37.0505,166.887 37.7172,159.72 47.5,153.5 Z"/></g>
<g><path style="opacity:1" fill="#070707" d="M 296.5,153.5 C 307.37,152.868 312.204,157.868 311,168.5C 307.54,175.812 302.04,177.979 294.5,175C 286.051,166.887 286.717,159.72 296.5,153.5 Z"/></g>
<g><path style="opacity:1" fill="#636363" d="M 13.5,193.5 C 13.5,199.167 13.5,204.833 13.5,210.5C 17.5,210.5 21.5,210.5 25.5,210.5C 21.3656,211.485 17.0323,211.818 12.5,211.5C 12.1771,205.31 12.5104,199.31 13.5,193.5 Z"/></g>
<g><path style="opacity:1" fill="#636363" d="M 262.5,193.5 C 262.5,199.167 262.5,204.833 262.5,210.5C 266.5,210.5 270.5,210.5 274.5,210.5C 270.366,211.485 266.032,211.818 261.5,211.5C 261.177,205.31 261.51,199.31 262.5,193.5 Z"/></g>
<g><path style="opacity:1" fill="#888888" d="M 134.5,202.5 C 134.5,205.5 134.5,208.5 134.5,211.5C 124.985,211.827 115.652,211.494 106.5,210.5C 115.5,210.5 124.5,210.5 133.5,210.5C 133.194,207.615 133.527,204.948 134.5,202.5 Z"/></g>
<g><path style="opacity:1" fill="#858585" d="M 170.5,202.5 C 170.5,205.5 170.5,208.5 170.5,211.5C 160.985,211.827 151.652,211.494 142.5,210.5C 151.5,210.5 160.5,210.5 169.5,210.5C 169.194,207.615 169.527,204.948 170.5,202.5 Z"/></g>
<g><path style="opacity:1" fill="#949494" d="M 191.5,203.5 C 191.5,206.167 191.5,208.833 191.5,211.5C 186.968,211.818 182.634,211.485 178.5,210.5C 182.5,210.5 186.5,210.5 190.5,210.5C 190.198,207.941 190.532,205.607 191.5,203.5 Z"/></g>
<g><path style="opacity:1" fill="#888888" d="M 383.5,202.5 C 383.5,205.5 383.5,208.5 383.5,211.5C 373.985,211.827 364.652,211.494 355.5,210.5C 364.5,210.5 373.5,210.5 382.5,210.5C 382.194,207.615 382.527,204.948 383.5,202.5 Z"/></g>
<g><path style="opacity:1" fill="#858585" d="M 419.5,202.5 C 419.5,205.5 419.5,208.5 419.5,211.5C 409.985,211.827 400.652,211.494 391.5,210.5C 400.5,210.5 409.5,210.5 418.5,210.5C 418.194,207.615 418.527,204.948 419.5,202.5 Z"/></g>
<g><path style="opacity:1" fill="#949494" d="M 440.5,203.5 C 440.5,206.167 440.5,208.833 440.5,211.5C 435.968,211.818 431.634,211.485 427.5,210.5C 431.5,210.5 435.5,210.5 439.5,210.5C 439.198,207.941 439.532,205.607 440.5,203.5 Z"/></g>
<g><path style="opacity:1" fill="#050505" d="M 20.5,245.5 C 17.5,245.5 14.5,245.5 11.5,245.5C 11.5,254.833 11.5,264.167 11.5,273.5C 14.5,273.5 17.5,273.5 20.5,273.5C 24.5,276.167 24.5,278.833 20.5,281.5C 17.5,281.5 14.5,281.5 11.5,281.5C 11.1731,291.015 11.5064,300.348 12.5,309.5C 15.5184,309.335 18.5184,309.502 21.5,310C 24.1667,312.333 24.1667,314.667 21.5,317C 18.5184,317.498 15.5184,317.665 12.5,317.5C 12.5,326.833 12.5,336.167 12.5,345.5C 15.5184,345.335 18.5184,345.502 21.5,346C 24.2652,348.966 23.9318,351.633 20.5,354C 17.854,354.497 15.1873,354.664 12.5,354.5C 12.5,363.5 12.5,372.5 12.5,381.5C 15.5184,381.335 18.5184,381.502 21.5,382C 24.2652,384.966 23.9318,387.633 20.5,390C 17.854,390.497 15.1873,390.664 12.5,390.5C 12.5,399.5 12.5,408.5 12.5,417.5C 15.5184,417.335 18.5184,417.502 21.5,418C 24.2652,420.966 23.9318,423.633 20.5,426C 17.854,426.497 15.1873,426.664 12.5,426.5C 11.5104,432.31 11.1771,438.31 11.5,444.5C 16.0323,444.818 20.3656,444.485 24.5,443.5C 24.3359,440.813 24.5026,438.146 25,435.5C 27.6667,431.5 30.3333,431.5 33,435.5C 33.498,438.482 33.6646,441.482 33.5,444.5C 42.5,444.5 51.5,444.5 60.5,444.5C 60.3354,441.482 60.502,438.482 61,435.5C 63.7159,431.524 66.3826,431.524 69,435.5C 69.498,438.482 69.6646,441.482 69.5,444.5C 78.5,444.5 87.5,444.5 96.5,444.5C 96.3354,441.482 96.502,438.482 97,435.5C 99.158,432.05 101.658,431.717 104.5,434.5C 105.484,437.428 105.817,440.428 105.5,443.5C 114.652,444.494 123.985,444.827 133.5,444.5C 133.5,441.5 133.5,438.5 133.5,435.5C 135.347,431.999 137.68,431.665 140.5,434.5C 141.407,437.421 141.74,440.421 141.5,443.5C 150.652,444.494 159.985,444.827 169.5,444.5C 169.5,441.5 169.5,438.5 169.5,435.5C 171.177,432.223 173.51,431.723 176.5,434C 177.451,437.057 177.784,440.223 177.5,443.5C 181.634,444.485 185.968,444.818 190.5,444.5C 190.5,441.833 190.5,439.167 190.5,436.5C 192.563,433.027 195.063,432.694 198,435.5C 198.806,441.084 198.639,446.584 197.5,452C 133.5,452.667 69.5,452.667 5.5,452C 5,451.5 4.5,451 4,450.5C 3.33333,380.167 3.33333,309.833 4,239.5C 4.5,239 5,238.5 5.5,238C 10.8333,237.333 16.1667,237.333 21.5,238C 24.3062,240.937 23.9729,243.437 20.5,245.5 Z"/></g>
<g><path style="opacity:1" fill="#0a0a0a" d="M 186.5,236.5 C 199.379,237.2 203.545,243.533 199,255.5C 190.66,261.88 183.994,260.547 179,251.5C 177.808,244.551 180.308,239.551 186.5,236.5 Z"/></g>
<g><path style="opacity:1" fill="#050505" d="M 269.5,245.5 C 266.5,245.5 263.5,245.5 260.5,245.5C 260.5,254.833 260.5,264.167 260.5,273.5C 263.5,273.5 266.5,273.5 269.5,273.5C 273.5,276.167 273.5,278.833 269.5,281.5C 266.5,281.5 263.5,281.5 260.5,281.5C 260.173,291.015 260.506,300.348 261.5,309.5C 264.518,309.335 267.518,309.502 270.5,310C 273.167,312.333 273.167,314.667 270.5,317C 267.518,317.498 264.518,317.665 261.5,317.5C 261.5,326.833 261.5,336.167 261.5,345.5C 264.518,345.335 267.518,345.502 270.5,346C 273.265,348.966 272.932,351.633 269.5,354C 266.854,354.497 264.187,354.664 261.5,354.5C 261.5,363.5 261.5,372.5 261.5,381.5C 264.518,381.335 267.518,381.502 270.5,382C 273.265,384.966 272.932,387.633 269.5,390C 266.854,390.497 264.187,390.664 261.5,390.5C 261.5,399.5 261.5,408.5 261.5,417.5C 264.518,417.335 267.518,417.502 270.5,418C 273.265,420.966 272.932,423.633 269.5,426C 266.854,426.497 264.187,426.664 261.5,426.5C 260.51,432.31 260.177,438.31 260.5,444.5C 265.032,444.818 269.366,444.485 273.5,443.5C 273.336,440.813 273.503,438.146 274,435.5C 276.667,431.5 279.333,431.5 282,435.5C 282.498,438.482 282.665,441.482 282.5,444.5C 291.5,444.5 300.5,444.5 309.5,444.5C 309.335,441.482 309.502,438.482 310,435.5C 312.716,431.524 315.383,431.524 318,435.5C 318.498,438.482 318.665,441.482 318.5,444.5C 327.5,444.5 336.5,444.5 345.5,444.5C 345.335,441.482 345.502,438.482 346,435.5C 348.158,432.05 350.658,431.717 353.5,434.5C 354.484,437.428 354.817,440.428 354.5,443.5C 363.652,444.494 372.985,444.827 382.5,444.5C 382.5,441.5 382.5,438.5 382.5,435.5C 384.347,431.999 386.68,431.665 389.5,434.5C 390.407,437.421 390.74,440.421 390.5,443.5C 399.652,444.494 408.985,444.827 418.5,444.5C 418.5,441.5 418.5,438.5 418.5,435.5C 420.177,432.223 422.51,431.723 425.5,434C 426.451,437.057 426.784,440.223 426.5,443.5C 430.634,444.485 434.968,444.818 439.5,444.5C 439.5,441.833 439.5,439.167 439.5,436.5C 441.563,433.027 444.063,432.694 447,435.5C 447.806,441.084 447.639,446.584 446.5,452C 382.5,452.667 318.5,452.667 254.5,452C 254,451.5 253.5,451 253,450.5C 252.333,380.167 252.333,309.833 253,239.5C 253.5,239 254,238.5 254.5,238C 259.833,237.333 265.167,237.333 270.5,238C 273.306,240.937 272.973,243.437 269.5,245.5 Z"/></g>
<g><path style="opacity:1" fill="#686868" d="M 20.5,245.5 C 18.0521,246.473 15.3854,246.806 12.5,246.5C 12.5,255.167 12.5,263.833 12.5,272.5C 15.3854,272.194 18.0521,272.527 20.5,273.5C 17.5,273.5 14.5,273.5 11.5,273.5C 11.5,264.167 11.5,254.833 11.5,245.5C 14.5,245.5 17.5,245.5 20.5,245.5 Z"/></g>
<g><path style="opacity:1" fill="#686868" d="M 269.5,245.5 C 267.052,246.473 264.385,246.806 261.5,246.5C 261.5,255.167 261.5,263.833 261.5,272.5C 264.385,272.194 267.052,272.527 269.5,273.5C 266.5,273.5 263.5,273.5 260.5,273.5C 260.5,264.167 260.5,254.833 260.5,245.5C 263.5,245.5 266.5,245.5 269.5,245.5 Z"/></g>
<g><path style="opacity:1" fill="#090909" d="M 414.5,271.5 C 421.663,270.331 426.829,272.998 430,279.5C 430.626,290.541 425.459,295.375 414.5,294C 408.643,290.813 406.477,285.979 408,279.5C 409.305,276.039 411.471,273.372 414.5,271.5 Z"/></g>
<g><path style="opacity:1" fill="#070707" d="M 452.5,272.5 C 465.717,272.942 469.884,279.275 465,291.5C 456.8,297.758 450.133,296.424 445,287.5C 443.802,280.57 446.302,275.57 452.5,272.5 Z"/></g>
<g><path style="opacity:1" fill="#090909" d="M 62.5,272.5 C 69.6625,271.331 74.8292,273.998 78,280.5C 78.6256,291.541 73.459,296.375 62.5,295C 56.6433,291.813 54.4766,286.979 56,280.5C 57.3046,277.039 59.4713,274.372 62.5,272.5 Z"/></g>
<g><path style="opacity:1" fill="#070707" d="M 100.5,273.5 C 113.717,273.942 117.884,280.275 113,292.5C 104.8,298.758 98.1332,297.424 93,288.5C 91.8015,281.57 94.3015,276.57 100.5,273.5 Z"/></g>
<g><path style="opacity:1" fill="#5c5c5c" d="M 20.5,281.5 C 18.0521,282.473 15.3854,282.806 12.5,282.5C 12.5,291.5 12.5,300.5 12.5,309.5C 11.5064,300.348 11.1731,291.015 11.5,281.5C 14.5,281.5 17.5,281.5 20.5,281.5 Z"/></g>
<g><path style="opacity:1" fill="#5c5c5c" d="M 269.5,281.5 C 267.052,282.473 264.385,282.806 261.5,282.5C 261.5,291.5 261.5,300.5 261.5,309.5C 260.506,300.348 260.173,291.015 260.5,281.5C 263.5,281.5 266.5,281.5 269.5,281.5 Z"/></g>
<g><path style="opacity:1" fill="#050505" d="M 113.5,309.5 C 124.886,309.048 129.72,314.381 128,325.5C 124.867,331.327 120.034,333.493 113.5,332C 107.092,328.677 104.925,323.511 107,316.5C 108.694,313.642 110.861,311.309 113.5,309.5 Z"/></g>
<g><path style="opacity:1" fill="#050505" d="M 362.5,309.5 C 373.886,309.048 378.72,314.381 377,325.5C 373.867,331.327 369.034,333.493 362.5,332C 356.092,328.677 353.925,323.511 356,316.5C 357.694,313.642 359.861,311.309 362.5,309.5 Z"/></g>
<g><path style="opacity:1" fill="#0a0a0a" d="M 443.5,308.5 C 456.379,309.2 460.545,315.533 456,327.5C 447.66,333.88 440.994,332.547 436,323.5C 434.808,316.551 437.308,311.551 443.5,308.5 Z"/></g>
<g><path style="opacity:1" fill="#080808" d="M 151.5,310.5 C 162.992,310.81 167.492,316.477 165,327.5C 159.305,334.587 152.972,335.254 146,329.5C 141.487,321.22 143.32,314.887 151.5,310.5 Z"/></g>
<g><path style="opacity:1" fill="#080808" d="M 400.5,310.5 C 411.992,310.81 416.492,316.477 414,327.5C 408.305,334.587 401.972,335.254 395,329.5C 390.487,321.22 392.32,314.887 400.5,310.5 Z"/></g>
<g><path style="opacity:1" fill="#080808" d="M 61.5,347.5 C 72.3704,346.868 77.2037,351.868 76,362.5C 73.1933,368.777 68.36,371.277 61.5,370C 50.8805,362.502 50.8805,355.002 61.5,347.5 Z"/></g>
<g><path style="opacity:1" fill="#080808" d="M 310.5,347.5 C 321.37,346.868 326.204,351.868 325,362.5C 322.193,368.777 317.36,371.277 310.5,370C 299.88,362.502 299.88,355.002 310.5,347.5 Z"/></g>
<g><path style="opacity:1" fill="#090909" d="M 390.5,346.5 C 400.695,345.869 405.861,350.536 406,360.5C 403.315,367.841 398.148,370.674 390.5,369C 384.092,365.677 381.925,360.511 384,353.5C 385.694,350.642 387.861,348.309 390.5,346.5 Z"/></g>
<g><path style="opacity:1" fill="#060606" d="M 347.5,348.5 C 358.865,348.028 363.699,353.362 362,364.5C 358.813,370.357 353.979,372.523 347.5,371C 341.092,367.677 338.925,362.511 341,355.5C 342.694,352.642 344.861,350.309 347.5,348.5 Z"/></g>
<g><path style="opacity:1" fill="#090909" d="M 160.5,381.5 C 170.695,380.869 175.861,385.536 176,395.5C 173.315,402.841 168.148,405.674 160.5,404C 154.092,400.677 151.925,395.511 154,388.5C 155.694,385.642 157.861,383.309 160.5,381.5 Z"/></g>
<g><path style="opacity:1" fill="#070707" d="M 89.5,384.5 C 102.259,384.416 106.759,390.416 103,402.5C 94.3217,409.998 87.3217,408.665 82,398.5C 81.5811,392.341 84.0811,387.674 89.5,384.5 Z"/></g>
<g><path style="opacity:1" fill="#070707" d="M 338.5,384.5 C 351.259,384.416 355.759,390.416 352,402.5C 343.322,409.998 336.322,408.665 331,398.5C 330.581,392.341 333.081,387.674 338.5,384.5 Z"/></g>
<g><path style="opacity:1" fill="#070707" d="M 46.5,386.5 C 57.3704,385.868 62.2037,390.868 61,401.5C 57.5405,408.812 52.0405,410.979 44.5,408C 36.0505,399.887 36.7172,392.72 46.5,386.5 Z"/></g>
<g><path style="opacity:1" fill="#070707" d="M 295.5,386.5 C 306.37,385.868 311.204,390.868 310,401.5C 306.54,408.812 301.04,410.979 293.5,408C 285.051,399.887 285.717,392.72 295.5,386.5 Z"/></g>
<g><path style="opacity:1" fill="#636363" d="M 12.5,426.5 C 12.5,432.167 12.5,437.833 12.5,443.5C 16.5,443.5 20.5,443.5 24.5,443.5C 20.3656,444.485 16.0323,444.818 11.5,444.5C 11.1771,438.31 11.5104,432.31 12.5,426.5 Z"/></g>
<g><path style="opacity:1" fill="#636363" d="M 261.5,426.5 C 261.5,432.167 261.5,437.833 261.5,443.5C 265.5,443.5 269.5,443.5 273.5,443.5C 269.366,444.485 265.032,444.818 260.5,444.5C 260.177,438.31 260.51,432.31 261.5,426.5 Z"/></g>
<g><path style="opacity:1" fill="#888888" d="M 133.5,435.5 C 133.5,438.5 133.5,441.5 133.5,444.5C 123.985,444.827 114.652,444.494 105.5,443.5C 114.5,443.5 123.5,443.5 132.5,443.5C 132.194,440.615 132.527,437.948 133.5,435.5 Z"/></g>
<g><path style="opacity:1" fill="#858585" d="M 169.5,435.5 C 169.5,438.5 169.5,441.5 169.5,444.5C 159.985,444.827 150.652,444.494 141.5,443.5C 150.5,443.5 159.5,443.5 168.5,443.5C 168.194,440.615 168.527,437.948 169.5,435.5 Z"/></g>
<g><path style="opacity:1" fill="#949494" d="M 190.5,436.5 C 190.5,439.167 190.5,441.833 190.5,444.5C 185.968,444.818 181.634,444.485 177.5,443.5C 181.5,443.5 185.5,443.5 189.5,443.5C 189.198,440.941 189.532,438.607 190.5,436.5 Z"/></g>
<g><path style="opacity:1" fill="#888888" d="M 382.5,435.5 C 382.5,438.5 382.5,441.5 382.5,444.5C 372.985,444.827 363.652,444.494 354.5,443.5C 363.5,443.5 372.5,443.5 381.5,443.5C 381.194,440.615 381.527,437.948 382.5,435.5 Z"/></g>
<g><path style="opacity:1" fill="#858585" d="M 418.5,435.5 C 418.5,438.5 418.5,441.5 418.5,444.5C 408.985,444.827 399.652,444.494 390.5,443.5C 399.5,443.5 408.5,443.5 417.5,443.5C 417.194,440.615 417.527,437.948 418.5,435.5 Z"/></g>
<g><path style="opacity:1" fill="#949494" d="M 439.5,436.5 C 439.5,439.167 439.5,441.833 439.5,444.5C 434.968,444.818 430.634,444.485 426.5,443.5C 430.5,443.5 434.5,443.5 438.5,443.5C 438.198,440.941 438.532,438.607 439.5,436.5 Z"/></g>
</svg>
